#!OML:ASF H:\ManfredETheater\Project 1\Capture day 1\Session 1\subject.ASF
:FULLY-SPECIFIED
:DEGREES
136
root -8.47006 14.9192 33.5337 1.6429 -1.60439 -5.16252
lowerback 19.2473 -0.622455 4.98692
upperback 1.81842 0.704986 4.95298
thorax -8.83964 0.248824 2.37444
lowerneck -21.3783 -1.48297 -1.57525
upperneck 13.4651 -0.253048 -6.99116
head 7.66213 -0.923326 -2.11139
rclavicle 1.25234e-014 -5.56597e-015
rhumerus -37.6762 4.19021 -74.4417
rradius 88.3694
rwrist -10.2034
rhand -23.7722 8.70477
rfingers 7.12502
rthumb 2.69739 -21.2579
lclavicle 1.25234e-014 -5.56597e-015
lhumerus -54.0097 -2.79608 93.131
lradius 80.2804
lwrist 10.007
lhand -23.0441 -10.8058
lfingers 7.12502
lthumb 3.40047 19.1468
rfemur -22.592 -2.57981 9.37642
rtibia 63.5169
rfoot -29.3213 -14.2021
rtoes -49.3931
lfemur -40.9619 3.63972 -21.8714
ltibia 99.9394
lfoot -15.3144 -10.2342
ltoes -2.7137
137
root -8.55559 14.9205 34.0523 1.72827 -1.3412 -5.59932
lowerback 19.1058 -0.494594 5.39523
upperback 1.71986 0.955162 4.95085
thorax -8.86579 0.352218 2.07461
lowerneck -21.5224 -1.67026 -1.62912
upperneck 13.6659 -0.51533 -6.75543
head 7.74398 -1.03413 -2.06222
rclavicle 8.74653e-015 1.27222e-014
rhumerus -37.1074 4.33442 -74.5946
rradius 90.5032
rwrist -11.044
rhand -23.6985 8.88873
rfingers 7.12502
rthumb 2.76849 -21.073
lclavicle 8.74653e-015 1.27222e-014
lhumerus -55.603 -3.34982 93.1756
lradius 81.0592
lwrist 10.0155
lhand -22.5988 -10.9
lfingers 7.12502
lthumb 3.83055 19.0453
rfemur -20.0781 -2.44187 10.1726
rtibia 62.9733
rfoot -29.9491 -15.1486
rtoes -49.7754
lfemur -43.7722 4.38301 -21.9867
ltibia 98.6544
lfoot -16.2434 -11.02
ltoes -3.74621
138
root -8.63423 14.9319 34.5781 1.83415 -1.0507 -6.07697
lowerback 18.899 -0.380761 5.87394
upperback 1.62147 1.19337 4.93606
thorax -8.85032 0.447173 1.72482
lowerneck -21.6428 -1.87423 -1.72107
upperneck 13.8193 -0.80733 -6.44583
head 7.80624 -1.15129 -1.98492
rclavicle -1.51076e-014 -3.02153e-014
rhumerus -36.653 4.4029 -74.7577
rradius 92.8238
rwrist -11.8566
rhand -23.6203 9.12696
rfingers 7.12502
rthumb 2.84403 -20.8338
lclavicle -1.51076e-014 -3.02153e-014
lhumerus -57.3176 -3.99185 93.2863
lradius 82.2422
lwrist 10.1799
lhand -22.1105 -10.9575
lfingers 7.12502
lthumb 4.30209 18.9788
rfemur -17.5163 -2.261 11.0091
rtibia 62.2402
rfoot -30.1297 -15.8396
rtoes -50.2298
lfemur -46.4047 4.91851 -22.0816
ltibia 96.9297
lfoot -17.0121 -11.5832
ltoes -4.55409
139
root -8.707 14.9532 35.1103 1.97308 -0.728336 -6.53895
lowerback 18.6111 -0.267537 6.34342
upperback 1.52159 1.41788 4.90806
thorax -8.78733 0.536415 1.37076
lowerneck -21.7453 -2.09486 -1.83651
upperneck 13.932 -1.12476 -6.10392
head 7.8528 -1.27664 -1.89544
rclavicle 2.98177e-015 -1.43125e-014
rhumerus -36.2872 4.41534 -74.9029
rradius 95.235
rwrist -12.5222
rhand -23.5282 9.40399
rfingers 7.12502
rthumb 2.93305 -20.5556
lclavicle 2.98177e-015 -1.43125e-014
lhumerus -59.0757 -4.63364 93.439
lradius 83.661
lwrist 10.5131
lhand -21.5987 -11.0155
lfingers 7.12502
lthumb 4.79627 18.9102
rfemur -14.9882 -2.06688 11.8202
rtibia 61.3992
rfoot -29.83 -16.2019
rtoes -50.7586
lfemur -48.8579 5.23912 -22.18
ltibia 94.7821
lfoot -17.5936 -11.8782
ltoes -5.08224
140
root -8.7746 14.9822 35.6478 2.13377 -0.361962 -6.93966
lowerback 18.2508 -0.148499 6.73982
upperback 1.42108 1.62459 4.87396
thorax -8.68282 0.620963 1.05798
lowerneck -21.8167 -2.33528 -1.98923
upperneck 14.0087 -1.46482 -5.74413
head 7.88376 -1.41127 -1.79592
rclavicle -1.86858e-014 -2.94201e-014
rhumerus -36.0038 4.38596 -74.9972
rradius 97.6638
rwrist -12.9684
rhand -23.4191 9.71511
rfingers 7.12502
rthumb 3.03834 -20.243
lclavicle -1.86858e-014 -2.94201e-014
lhumerus -60.8175 -5.2002 93.6225
lradius 85.1748
lwrist 10.9884
lhand -21.092 -11.081
lfingers 7.12502
lthumb 5.28549 18.8331
rfemur -12.5539 -1.90081 12.5447
rtibia 60.5448
rfoot -29.0469 -16.1427
rtoes -51.3401
lfemur -51.0979 5.34426 -22.2993
ltibia 92.2311
lfoot -17.9809 -11.8881
ltoes -5.3887
141
root -8.83772 15.017 36.1896 2.30099 0.0495395 -7.28496
lowerback 17.8358 -0.0248929 7.0559
upperback 1.32571 1.81292 4.84678
thorax -8.54181 0.701336 0.805105
lowerneck -21.8533 -2.59231 -2.17227
upperneck 14.0543 -1.81936 -5.39558
head 7.9005 -1.55425 -1.69624
rclavicle 1.63003e-014 6.36111e-014
rhumerus -35.803 4.32299 -75.0281
rradius 100.062
rwrist -13.1688
rhand -23.2906 10.0546
rfingers 7.12502
rthumb 3.16242 -19.9017
lclavicle 1.63003e-014 6.36111e-014
lhumerus -62.4932 -5.63148 93.8154
lradius 86.6799
lwrist 11.5379
lhand -20.6061 -11.1652
lfingers 7.12502
lthumb 5.75462 18.7367
rfemur -10.2585 -1.78084 13.1808
rtibia 59.7593
rfoot -27.7983 -15.5658
rtoes -51.92
lfemur -53.0952 5.25167 -22.3997
ltibia 89.2984
lfoot -18.1587 -11.645
ltoes -5.50818
142
root -8.89673 15.0563 36.7347 2.44451 0.492275 -7.57333
lowerback 17.4092 0.101662 7.27887
upperback 1.2391 1.98363 4.83147
thorax -8.3861 0.77806 0.624226
lowerneck -21.8573 -2.85403 -2.37735
upperneck 14.0885 -2.1714 -5.06942
head 7.91037 -1.69888 -1.59964
rclavicle -1.96797e-014 -6.59965e-014
rhumerus -35.6921 4.24196 -74.9948
rradius 102.381
rwrist -13.1672
rhand -23.1482 10.4192
rfingers 7.12502
rthumb 3.30003 -19.535
lclavicle -1.96797e-014 -6.59965e-014
lhumerus -64.0782 -5.89264 93.9954
lradius 88.0979
lwrist 12.0678
lhand -20.15 -11.2769
lfingers 7.12502
lthumb 6.19505 18.6125
rfemur -8.12489 -1.70725 13.718
rtibia 59.1003
rfoot -26.0701 -14.3816
rtoes -52.4011
lfemur -54.8055 4.99715 -22.4548
ltibia 86.0029
lfoot -18.0952 -11.2005
ltoes -5.32249
143
root -8.95157 15.0984 37.2821 2.53881 0.949333 -7.80528
lowerback 17.0128 0.225192 7.40825
upperback 1.16401 2.13426 4.82799
thorax -8.23716 0.849284 0.515303
lowerneck -21.8353 -3.11204 -2.58906
upperneck 14.127 -2.51176 -4.7739
head 7.91944 -1.84134 -1.51057
rclavicle 1.47101e-014 3.02153e-014
rhumerus -35.6796 4.15379 -74.9136
rradius 104.581
rwrist -13.0255
rhand -23.0035 10.7979
rfingers 7.12502
rthumb 3.43971 -19.1541
lclavicle 1.47101e-014 3.02153e-014
lhumerus -65.5594 -5.96423 94.1421
lradius 89.3841
lwrist 12.483
lhand -19.7468 -11.4157
lfingers 7.12502
lthumb 6.58428 18.4619
rfemur -6.16802 -1.67722 14.1427
rtibia 58.5984
rfoot -23.8182 -12.5405
rtoes -52.6636
lfemur -56.191 4.61958 -22.4495
ltibia 82.3641
lfoot -17.7511 -10.6732
ltoes -4.81656
144
root -9.00205 15.1416 37.8315 2.55957 1.40394 -7.98467
lowerback 16.6799 0.337906 7.4551
upperback 1.104 2.26089 4.83239
thorax -8.11042 0.912014 0.467652
lowerneck -21.7931 -3.35578 -2.79794
upperneck 14.185 -2.8291 -4.50497
head 7.93362 -1.97569 -1.42803
rclavicle 9.54166e-015 4.29375e-014
rhumerus -35.7642 4.07156 -74.8001
rradius 106.622
rwrist -12.825
rhand -22.8744 11.1734
rfingers 7.12502
rthumb 3.56441 -18.7765
lclavicle 9.54166e-015 4.29375e-014
lhumerus -66.9315 -5.84484 94.2381
lradius 90.52
lwrist 12.7077
lhand -19.408 -11.5878
lfingers 7.12502
lthumb 6.9113 18.2794
rfemur -4.38246 -1.66532 14.4547
rtibia 58.2576
rfoot -20.9079 -10.1447
rtoes -52.5779
lfemur -57.2182 4.15501 -22.3735
ltibia 78.4066
lfoot -17.0688 -10.1292
ltoes -3.9132
145
root -9.04877 15.1844 38.3822 2.49012 1.82408 -8.12531
lowerback 16.4364 0.441455 7.43659
upperback 1.06721 2.37139 4.83864
thorax -8.01102 0.968999 0.462152
lowerneck -21.763 -3.57914 -2.99629
upperneck 14.2829 -3.11731 -4.2521
head 7.96485 -2.09812 -1.35
rclavicle 1.31198e-014 4.53229e-014
rhumerus -35.9315 3.99126 -74.678
rradius 108.465
rwrist -12.6449
rhand -22.7814 11.5229
rfingers 7.12502
rthumb 3.65417 -18.4255
lclavicle 1.31198e-014 4.53229e-014
lhumerus -68.1816 -5.56191 94.2691
lradius 91.4989
lwrist 12.7314
lhand -19.1563 -11.8158
lfingers 7.12502
lthumb 7.15428 18.0433
rfemur -2.80216 -1.62657 14.6787
rtibia 58.1984
rfoot -17.3347 -7.40377
rtoes -52.0219
lfemur -57.8563 3.64298 -22.2035
ltibia 74.1056
lfoot -15.9386 -9.65198
ltoes -2.78971
146
root -9.09202 15.2245 38.9339 2.3409 2.17432 -8.21155
lowerback 16.2906 0.543583 7.3404
upperback 1.04458 2.47473 4.83408
thorax -7.95346 1.02406 0.489329
lowerneck -21.7433 -3.77841 -3.18051
upperneck 14.431 -3.37593 -3.99719
head 8.0162 -2.20636 -1.27106
rclavicle -7.35503e-015 -8.74653e-015
rhumerus -36.1803 3.91394 -74.5723
rradius 110.071
rwrist -12.5462
rhand -22.7415 11.8478
rfingers 7.12502
rthumb 3.69271 -18.1
lclavicle -7.35503e-015 -8.74653e-015
lhumerus -69.3206 -5.15252 94.2347
lradius 92.3302
lwrist 12.5732
lhand -18.9962 -12.0832
lfingers 7.12502
lthumb 7.30886 17.7705
rfemur -1.37695 -1.52309 14.8037
rtibia 58.2376
rfoot -13.0716 -4.46869
rtoes -50.8027
lfemur -58.1157 3.108 -21.9523
ltibia 69.5274
lfoot -14.3756 -9.27469
ltoes -1.74847
147
root -9.14958 15.2112 39.4795 2.20721 2.72826 -8.28563
lowerback 16.0878 0.618451 7.26353
upperback 1.01852 2.5401 4.82739
thorax -7.86867 1.06107 0.513126
lowerneck -21.5765 -4.03127 -3.36131
upperneck 14.4221 -3.71971 -3.75504
head 7.99036 -2.35241 -1.20172
rclavicle -6.95746e-015 -3.33958e-014
rhumerus -36.4236 3.78717 -74.4241
rradius 112.133
rwrist -12.0346
rhand -22.4927 12.2867
rfingers 7.12502
rthumb 3.93303 -17.6568
lclavicle -6.95746e-015 -3.33958e-014
lhumerus -70.6494 -4.84849 94.2169
lradius 93.2917
lwrist 12.306
lhand -18.853 -12.1742
lfingers 7.12502
lthumb 7.447 17.6747
rfemur 0.191602 -1.68814 14.8541
rtibia 58.5712
rfoot -7.87913 -1.24453
rtoes -48.7271
lfemur -58.2181 2.4615 -21.8225
ltibia 64.5521
lfoot -13.5917 -8.7239
ltoes 0.0628159
148
root -9.18414 15.2443 40.0347 1.91132 2.91791 -8.31624
lowerback 16.1431 0.706183 7.09574
upperback 1.00246 2.6327 4.81313
thorax -7.91978 1.11005 0.569899
lowerneck -21.586 -4.1878 -3.56524
upperneck 14.7211 -3.9179 -3.45876
head 8.10186 -2.43116 -1.10187
rclavicle 4.96962e-015 -1.66979e-014
rhumerus -36.8494 3.71315 -74.3691
rradius 113.207
rwrist -12.1486
rhand -22.6513 12.5223
rfingers 7.12502
rthumb 3.77984 -17.4239
lclavicle 4.96962e-015 -1.66979e-014
lhumerus -71.5905 -4.15627 94.0536
lradius 93.8417
lwrist 11.6846
lhand -18.8102 -12.4606
lfingers 7.12502
lthumb 7.48835 17.3869
rfemur 1.18476 -1.37371 14.8412
rtibia 58.7779
rfoot -0.443173 0.827734
rtoes -45.1588
lfemur -57.8695 1.99182 -21.3896
ltibia 59.5224
lfoot -10.6885 -8.62806
ltoes 3.08252
